<svg xmlns="http://www.w3.org/2000/svg" xmlns:xlink="http://www.w3.org/1999/xlink" width="500" zoomAndPan="magnify" viewBox="0 0 375 374.999991" height="500" preserveAspectRatio="xMidYMid meet" version="1.0"><defs><g/><clipPath id="2f44235a9e"><path d="M 8.390625 180.421875 L 69.402344 180.421875 L 69.402344 197.511719 L 8.390625 197.511719 Z M 8.390625 180.421875 " clip-rule="nonzero"/></clipPath><clipPath id="022d6b3426"><path d="M 9.5 200.636719 L 93.179688 200.636719 L 93.179688 243.585938 L 9.5 243.585938 Z M 9.5 200.636719 " clip-rule="nonzero"/></clipPath><clipPath id="328e9f4584"><path d="M 117 225 L 149.0625 225 L 149.0625 239 L 117 239 Z M 117 225 " clip-rule="nonzero"/></clipPath></defs><path fill="#ff5757" d="M 120.121094 222.246094 C 121.023438 222.539062 121.96875 222.6875 122.941406 222.621094 C 123.699219 222.570312 124.433594 222.390625 125.117188 222.082031 C 126.476562 221.460938 127.507812 220.402344 128.25 219.175781 C 128.515625 219.070312 128.769531 218.964844 129.019531 218.863281 C 128.261719 221.003906 126.867188 223.082031 124.664062 224.082031 C 123.925781 224.417969 123.140625 224.609375 122.320312 224.664062 C 120.476562 224.785156 118.707031 224.203125 117.148438 223.269531 C 118.167969 222.925781 119.160156 222.582031 120.121094 222.246094 " fill-opacity="1" fill-rule="evenodd"/><path fill="#ff5757" d="M 62.382812 199.726562 C 53.445312 198.566406 51.070312 208.457031 53.097656 216.085938 C 46.816406 211.652344 36.503906 204.828125 25.992188 202.121094 C 25.8125 200.269531 25.433594 197.207031 24.371094 194.328125 C 22.832031 190.148438 19.585938 186.96875 15.003906 189.980469 C 19.542969 187.851562 21.988281 190.476562 23.492188 194.878906 C 24.476562 197.753906 24.832031 200.765625 24.710938 202.648438 C 36.96875 207.722656 48.996094 215.1875 57.742188 223.367188 C 53.125 212.796875 52.777344 202.175781 62.382812 199.726562 " fill-opacity="1" fill-rule="evenodd"/><path fill="#ff5757" d="M 62.382812 199.726562 C 53.445312 198.566406 51.070312 208.457031 53.097656 216.085938 C 46.140625 211.167969 37.234375 204.953125 24.710938 202.648438 C 38.351562 207.894531 48.355469 214.585938 57.742188 223.367188 C 53.125 212.796875 52.777344 202.175781 62.382812 199.726562 " fill-opacity="1" fill-rule="evenodd"/><path fill="#ff5757" d="M 74.8125 194.859375 C 89.230469 206.101562 93.0625 204.589844 110.792969 201.746094 L 131.265625 197.96875 L 110.496094 200.109375 C 93.511719 202.660156 90.132812 204.257812 74.8125 194.859375 " fill-opacity="1" fill-rule="evenodd"/><path fill="#ff5757" d="M 83.53125 195.308594 C 84.160156 196.664062 85.3125 197.636719 86.703125 198.5 C 87.734375 199.136719 89.074219 199.65625 91.125 199.878906 C 98.816406 200.703125 102.625 198.632812 107.488281 198.058594 C 102.65625 197.65625 96.625 199.769531 92.027344 198.917969 C 91.050781 198.738281 90.230469 198.476562 89.65625 198.125 C 88.421875 197.359375 87.398438 196.496094 86.839844 195.292969 L 86.789062 195.179688 C 86.980469 195.144531 87.183594 195.113281 87.398438 195.078125 C 93.34375 194.121094 97.910156 194.003906 101.09375 194.625 C 97.828125 193.71875 92.96875 193.65625 86.511719 194.550781 C 86.394531 194.269531 86.304688 194.015625 86.238281 193.789062 C 86.765625 193.476562 87.691406 193.304688 89.09375 193.132812 C 95.015625 192.40625 99.539062 192.464844 102.660156 193.207031 C 99.144531 192.074219 93.660156 191.890625 86.214844 192.800781 L 86.128906 192.8125 C 86.285156 191.953125 87.355469 191.707031 89.691406 191.523438 C 95.828125 191.039062 100.480469 191.292969 103.660156 192.183594 C 100.09375 190.878906 94.457031 190.453125 86.742188 191.0625 C 82.460938 191.402344 81.949219 191.914062 83.53125 195.308594 " fill-opacity="1" fill-rule="evenodd"/><path fill="#ff5757" d="M 20.4375 183.890625 C 33.875 180.875 57.476562 181.277344 69.292969 183.308594 L 69.15625 181.464844 C 57.371094 179.875 33.835938 180.359375 20.4375 183.890625 " fill-opacity="1" fill-rule="evenodd"/><path fill="#ff5757" d="M 66.863281 182.9375 C 67.730469 183 68.429688 183.246094 69.292969 183.308594 C 75.210938 176.355469 70.292969 167.648438 57.660156 167.09375 C 44.394531 166.511719 32.007812 174.867188 24.765625 182.683594 C 33.933594 175.621094 41.894531 168.441406 55.871094 169.15625 C 65.59375 169.65625 72.824219 175.179688 66.863281 182.9375 " fill-opacity="1" fill-rule="evenodd"/><path fill="#ff5757" d="M 61.699219 200.839844 C 61.980469 200.828125 62.257812 200.839844 62.535156 200.867188 C 61.921875 200.902344 61.332031 201.058594 60.78125 201.328125 C 59.078125 202.167969 58.015625 203.992188 57.453125 205.898438 C 57.074219 207.195312 56.894531 208.589844 56.878906 210.003906 C 56.863281 211.421875 57.007812 212.863281 57.273438 214.25 C 57.605469 215.96875 58.148438 217.714844 58.886719 219.363281 C 59.625 221.023438 60.570312 222.582031 61.703125 223.929688 C 62.554688 224.945312 63.578125 225.898438 64.703125 226.574219 C 65.832031 227.253906 67.0625 227.660156 68.320312 227.578125 C 68.976562 227.535156 69.609375 227.355469 70.191406 227.042969 C 71.9375 226.097656 72.976562 224.113281 73.492188 222.082031 C 73.734375 221.121094 73.867188 220.121094 73.917969 219.105469 C 73.953125 220.683594 73.8125 222.257812 73.441406 223.738281 C 72.882812 225.945312 71.761719 228.097656 69.875 229.117188 C 69.246094 229.457031 68.5625 229.648438 67.847656 229.695312 C 66.492188 229.785156 65.164062 229.351562 63.949219 228.617188 C 62.734375 227.886719 61.625 226.855469 60.707031 225.753906 C 59.488281 224.296875 58.46875 222.601562 57.671875 220.808594 C 56.878906 219.027344 56.300781 217.136719 55.945312 215.277344 C 55.664062 213.78125 55.507812 212.222656 55.53125 210.6875 C 55.554688 209.167969 55.75 207.667969 56.164062 206.269531 C 56.773438 204.214844 57.921875 202.246094 59.757812 201.339844 C 60.367188 201.042969 61.019531 200.875 61.699219 200.839844 " fill-opacity="1" fill-rule="evenodd"/><path fill="#ff5757" d="M 60.320312 201.367188 C 59.871094 201.578125 59.457031 201.84375 59.070312 202.15625 C 59.460938 203.480469 59.84375 204.773438 60.214844 206.035156 C 60.898438 208.34375 61.554688 210.5625 62.183594 212.699219 C 60.902344 212.675781 59.617188 212.660156 58.335938 212.636719 C 57.476562 212.625 56.617188 212.609375 55.753906 212.597656 C 55.824219 213.882812 56.011719 215.207031 56.3125 216.527344 C 57.273438 216.742188 58.234375 216.953125 59.191406 217.164062 C 59.742188 217.289062 60.292969 217.410156 60.839844 217.527344 C 61.191406 218.78125 61.949219 219.917969 62.878906 220.308594 C 62.863281 221.101562 62.84375 221.882812 62.824219 222.648438 C 62.789062 224.113281 62.75 225.535156 62.71875 226.925781 C 63.457031 227.402344 64.214844 227.765625 64.96875 227.996094 C 65.179688 226.730469 65.398438 225.429688 65.621094 224.101562 C 65.816406 222.90625 66.023438 221.679688 66.234375 220.429688 C 66.390625 220.386719 66.539062 220.316406 66.679688 220.238281 C 67.585938 221.082031 68.46875 221.910156 69.34375 222.726562 C 70.3125 223.636719 71.273438 224.523438 72.210938 225.402344 C 72.695312 224.710938 73.109375 223.910156 73.445312 223.023438 C 72.570312 221.921875 71.667969 220.800781 70.753906 219.652344 C 69.972656 218.675781 69.171875 217.679688 68.355469 216.660156 C 68.402344 218.019531 67.992188 219.144531 67.269531 219.671875 C 68.183594 218.234375 68.019531 216.238281 67.324219 214.640625 C 66.628906 213.042969 65.402344 211.820312 64.167969 211.886719 C 63.664062 211.917969 63.292969 212.171875 62.9375 212.496094 C 62.570312 212.828125 62.199219 213.15625 61.832031 213.484375 C 62.328125 212.945312 63.125 212.292969 63.539062 211.90625 C 63.839844 211.621094 64.207031 211.449219 64.628906 211.425781 C 66.125 211.34375 67.726562 213.171875 68.214844 215.519531 C 68.222656 215.539062 68.226562 215.5625 68.230469 215.578125 C 68.953125 214.625 69.6875 213.65625 70.433594 212.667969 C 71.136719 211.742188 71.851562 210.792969 72.574219 209.832031 C 72.023438 208.546875 71.371094 207.347656 70.644531 206.28125 C 69.898438 207.003906 69.148438 207.726562 68.394531 208.453125 C 67.363281 209.449219 66.351562 210.429688 65.355469 211.394531 C 64.601562 209.285156 63.820312 207.097656 63.011719 204.828125 C 62.558594 203.558594 62.097656 202.265625 61.628906 200.945312 C 61.183594 201.027344 60.746094 201.167969 60.320312 201.367188 Z M 61.75 217.726562 C 61.367188 216.769531 61.203125 215.03125 62.089844 214.578125 C 61.578125 215.382812 62.257812 217.21875 62.734375 217.945312 C 63.074219 218.460938 63.585938 218.921875 64.191406 218.832031 C 63.949219 219.386719 63.46875 219.554688 62.992188 219.308594 C 62.394531 219.003906 61.996094 218.367188 61.75 217.726562 " fill-opacity="1" fill-rule="evenodd"/><path fill="#ff5757" d="M 17.914062 189.832031 C 18.054688 189.839844 18.1875 189.859375 18.324219 189.890625 C 18.019531 189.875 17.722656 189.929688 17.4375 190.046875 C 16.5625 190.410156 15.945312 191.339844 15.570312 192.328125 C 15.0625 193.664062 14.929688 195.234375 15.035156 196.699219 C 15.167969 198.503906 15.683594 200.382812 16.59375 201.855469 C 17.273438 202.960938 18.285156 203.972656 19.464844 204.039062 C 19.777344 204.058594 20.082031 204.007812 20.371094 203.882812 C 21.25 203.519531 21.867188 202.59375 22.242188 201.601562 C 22.421875 201.132812 22.554688 200.632812 22.644531 200.121094 C 22.554688 200.925781 22.382812 201.710938 22.109375 202.433594 C 21.703125 203.496094 21.039062 204.496094 20.097656 204.886719 C 19.78125 205.015625 19.453125 205.070312 19.121094 205.050781 C 17.851562 204.980469 16.765625 203.890625 16.03125 202.703125 C 15.050781 201.117188 14.496094 199.097656 14.355469 197.152344 C 14.238281 195.578125 14.382812 193.890625 14.929688 192.453125 C 15.332031 191.386719 15.996094 190.390625 16.941406 190 C 17.253906 189.867188 17.582031 189.8125 17.914062 189.832031 " fill-opacity="1" fill-rule="evenodd"/><path fill="#ff5757" d="M 17.273438 190.046875 C 17.042969 190.136719 16.828125 190.257812 16.625 190.40625 C 16.738281 191.140625 16.847656 191.859375 16.953125 192.554688 C 17.148438 193.816406 17.332031 195.019531 17.507812 196.167969 C 16.902344 196.089844 16.300781 196.007812 15.699219 195.925781 C 15.292969 195.871094 14.890625 195.816406 14.488281 195.761719 C 14.457031 196.433594 14.476562 197.125 14.546875 197.820312 L 15.855469 198.304688 L 16.605469 198.582031 C 16.699219 199.238281 16.992188 199.859375 17.402344 200.105469 L 17.242188 201.28125 C 17.148438 202.007812 17.050781 202.71875 16.957031 203.398438 C 17.273438 203.675781 17.597656 203.894531 17.929688 204.054688 C 18.101562 203.445312 18.277344 202.8125 18.457031 202.164062 C 18.617188 201.578125 18.785156 200.976562 18.957031 200.355469 C 19.03125 200.34375 19.105469 200.320312 19.175781 200.285156 L 20.269531 201.691406 C 20.664062 202.199219 21.054688 202.699219 21.433594 203.1875 C 21.703125 202.875 21.949219 202.5 22.164062 202.074219 C 21.824219 201.46875 21.472656 200.851562 21.117188 200.21875 C 20.8125 199.679688 20.5 199.125 20.179688 198.558594 C 20.117188 199.253906 19.855469 199.804688 19.484375 200.03125 L 19.5 200.015625 L 19.515625 199.996094 C 20.433594 198.832031 19.789062 195.929688 18.492188 195.855469 C 18.167969 195.839844 17.933594 196.058594 17.703125 196.238281 L 17.296875 196.558594 C 17.558594 196.304688 17.976562 196.007812 18.191406 195.832031 C 18.351562 195.699219 18.539062 195.628906 18.738281 195.640625 C 19.453125 195.679688 20.101562 196.722656 20.1875 197.964844 L 20.1875 197.996094 C 20.589844 197.542969 21 197.082031 21.417969 196.609375 C 21.8125 196.164062 22.214844 195.707031 22.628906 195.242188 C 22.453125 194.53125 22.21875 193.859375 21.941406 193.25 L 20.71875 194.285156 C 20.160156 194.753906 19.617188 195.214844 19.085938 195.664062 C 18.855469 194.515625 18.613281 193.3125 18.359375 192.054688 C 18.222656 191.351562 18.074219 190.628906 17.925781 189.886719 C 17.707031 189.90625 17.488281 189.960938 17.273438 190.046875 Z M 17.019531 198.734375 C 16.921875 198.257812 16.886719 197.332031 17.355469 197.136719 C 17.027344 197.625 17.339844 199.464844 18.09375 199.433594 C 17.753906 200.066406 17.1875 199.457031 17.019531 198.734375 " fill-opacity="1" fill-rule="evenodd"/><path fill="#ff5757" d="M 53.277344 203.695312 C 50.730469 205.914062 50.035156 209.046875 49.980469 210.585938 C 47.652344 208.941406 43.863281 207.574219 39.671875 206.800781 C 44.234375 208.558594 48.507812 211.035156 51.652344 213.972656 C 51.132812 211.132812 51.585938 205.746094 53.277344 203.695312 " fill-opacity="1" fill-rule="evenodd"/><g clip-path="url(#2f44235a9e)"><path fill="#ff5757" d="M 11.820312 197.402344 C 10.148438 195.257812 8.542969 192.804688 9.097656 190.679688 C 10.359375 185.851562 24.035156 183.699219 28.5 183.246094 C 41.761719 181.910156 59.730469 181.726562 69.292969 183.308594 L 69.15625 181.464844 C 59.613281 180.1875 41.898438 180.203125 28.480469 182.09375 C 23.625 182.777344 8.902344 185.128906 8.128906 190.746094 C 7.792969 193.152344 9.929688 195.691406 11.820312 197.402344 " fill-opacity="1" fill-rule="evenodd"/></g><path fill="#ff5757" d="M 29.085938 178.472656 C 29.023438 178.042969 28.859375 176.867188 28.714844 176.515625 C 28.558594 176.128906 28.15625 175.898438 27.71875 175.941406 C 25.289062 176.179688 23.179688 176.910156 21.363281 178.085938 C 20.988281 178.328125 20.847656 178.765625 21.015625 179.160156 C 21.378906 180.015625 21.816406 180.695312 22.332031 181.167969 C 22.503906 181.328125 22.703125 181.410156 22.941406 181.425781 C 23.703125 181.472656 24.496094 181.46875 25.316406 181.425781 C 24.839844 181.4375 24.324219 181.375 23.875 181.347656 C 23.671875 181.335938 23.5 181.265625 23.355469 181.128906 C 22.914062 180.722656 22.597656 180.195312 22.285156 179.464844 C 22.140625 179.128906 22.261719 178.753906 22.578125 178.546875 C 24.132812 177.542969 25.9375 176.917969 28.015625 176.714844 C 28.300781 176.6875 28.574219 176.722656 28.726562 177.214844 C 28.773438 177.371094 28.867188 178.359375 28.886719 178.613281 C 28.898438 178.777344 29.03125 178.652344 29.085938 178.472656 " fill-opacity="1" fill-rule="evenodd"/><path fill="#ff5757" d="M 30.332031 180.925781 C 29.664062 181.011719 29 181.097656 28.335938 181.191406 C 28.304688 181.195312 28.269531 181.199219 28.234375 181.207031 C 36.535156 174.769531 43.820312 169.453125 55.816406 170.070312 C 58.433594 170.203125 61.214844 170.734375 63.558594 171.859375 C 64.382812 172.253906 65.195312 172.746094 65.898438 173.339844 C 65.429688 173.03125 64.9375 172.757812 64.441406 172.519531 C 62.09375 171.394531 59.316406 170.863281 56.699219 170.730469 C 45.289062 170.144531 38.144531 174.921875 30.332031 180.925781 Z M 31.988281 180.707031 C 37.378906 176.265625 42.960938 172.824219 50.234375 171.601562 C 44.136719 173.183594 39.21875 176.398438 34.429688 180.382812 L 31.988281 180.707031 " fill-opacity="1" fill-rule="evenodd"/><path fill="#ff5757" d="M 133.378906 217.273438 C 127.765625 219.175781 89.519531 228.847656 81.328125 227.375 C 83.523438 220.808594 83.320312 210.625 78.296875 203.796875 C 72.992188 196.589844 64.574219 195.261719 56.628906 195.628906 C 45.929688 196.125 35.21875 199.4375 25.882812 193.1875 C 34.65625 200.730469 45.761719 197.566406 56.058594 197.097656 C 63.453125 196.765625 70.429688 197.824219 75.820312 205.242188 C 81.074219 212.472656 78.703125 226.316406 77.125 230.203125 C 93.289062 232.953125 125.070312 221.175781 133.378906 217.273438 " fill-opacity="1" fill-rule="evenodd"/><path fill="#ff5757" d="M 109.125 222.144531 L 110.285156 221.871094 C 110.226562 221.101562 110.167969 220.332031 110.113281 219.566406 C 110.105469 219.445312 110.09375 219.328125 110.085938 219.207031 L 111.351562 218.863281 L 121.71875 216.023438 L 111.140625 218.203125 C 110.378906 218.359375 109.621094 218.515625 108.863281 218.671875 C 108.890625 219.007812 108.914062 219.347656 108.941406 219.683594 L 109.125 222.144531 " fill-opacity="1" fill-rule="evenodd"/><path fill="#ff5757" d="M 54.40625 167.125 C 70.855469 166.042969 99.550781 164.703125 116.898438 177.128906 C 100.226562 162.59375 73.554688 165.039062 54.40625 167.125 " fill-opacity="1" fill-rule="evenodd"/><g clip-path="url(#022d6b3426)"><path fill="#ff5757" d="M 72.738281 236.460938 L 64.777344 230.796875 L 78 237.480469 C 74.539062 235.328125 71.0625 233.207031 67.5625 231.121094 C 65.972656 231.136719 64.46875 230.609375 63.132812 229.804688 C 61.75 228.972656 60.53125 227.835938 59.519531 226.625 C 58.832031 225.804688 58.214844 224.929688 57.664062 224.019531 C 45.046875 217.433594 32.003906 210.96875 20.394531 205.605469 C 20.085938 205.730469 19.757812 205.800781 19.425781 205.820312 C 37.429688 215.273438 55.144531 225.589844 72.738281 236.460938 Z M 15.503906 203.375 C 13.488281 202.46875 11.527344 201.601562 9.636719 200.78125 L 9.636719 200.785156 L 9.636719 200.78125 C 11.757812 201.851562 13.878906 202.9375 15.992188 204.03125 C 15.816406 203.816406 15.652344 203.597656 15.503906 203.375 Z M 67.652344 231.117188 C 74.945312 235.160156 81.820312 239.0625 87.785156 242.566406 L 72.371094 232.699219 L 93.125 243.585938 C 86.347656 239.578125 78.460938 235.144531 70.074219 230.609375 C 69.40625 230.890625 68.695312 231.054688 67.953125 231.105469 C 67.855469 231.113281 67.753906 231.113281 67.652344 231.117188 " fill-opacity="1" fill-rule="evenodd"/></g><g clip-path="url(#328e9f4584)"><path fill="#ff5757" d="M 128.640625 231.796875 L 120.679688 226.132812 L 133.898438 232.816406 C 130.214844 230.523438 126.507812 228.265625 122.777344 226.042969 C 122.660156 226.058594 122.542969 226.066406 122.425781 226.074219 C 120.875 226.175781 119.371094 225.867188 117.980469 225.289062 C 121.539062 227.433594 125.09375 229.605469 128.640625 231.796875 Z M 122.808594 226.039062 C 130.378906 230.230469 137.519531 234.28125 143.6875 237.902344 L 128.273438 228.035156 L 149.027344 238.921875 C 142.011719 234.769531 133.800781 230.160156 125.078125 225.460938 C 124.355469 225.761719 123.59375 225.953125 122.808594 226.039062 " fill-opacity="1" fill-rule="evenodd"/></g><g fill="#ff5757" fill-opacity="1"><g transform="translate(124.384169, 207.151597)"><g><path d="M 20.34375 -33.4375 C 24.207031 -33.4375 27.207031 -32.316406 29.34375 -30.078125 C 31.488281 -27.835938 32.5625 -24.734375 32.5625 -20.765625 C 32.5625 -16.554688 31.707031 -12.734375 30 -9.296875 C 28.289062 -5.859375 25.960938 -3.316406 23.015625 -1.671875 L 28.375 7.84375 L 18.484375 7.84375 L 14.84375 0.453125 L 14.578125 0.453125 C 10.703125 0.453125 7.691406 -0.664062 5.546875 -2.90625 C 3.410156 -5.15625 2.34375 -8.265625 2.34375 -12.234375 C 2.34375 -16.210938 3.109375 -19.859375 4.640625 -23.171875 C 6.179688 -26.492188 8.300781 -29.035156 11 -30.796875 C 13.695312 -32.554688 16.8125 -33.4375 20.34375 -33.4375 Z M 19.59375 -26.0625 C 18.050781 -26.0625 16.632812 -25.4375 15.34375 -24.1875 C 14.0625 -22.9375 13.0625 -21.238281 12.34375 -19.09375 C 11.625 -16.945312 11.265625 -14.628906 11.265625 -12.140625 C 11.265625 -10.410156 11.617188 -9.113281 12.328125 -8.25 C 13.046875 -7.382812 14.054688 -6.953125 15.359375 -6.953125 C 16.890625 -6.953125 18.289062 -7.5625 19.5625 -8.78125 C 20.832031 -10 21.832031 -11.6875 22.5625 -13.84375 C 23.300781 -16 23.671875 -18.335938 23.671875 -20.859375 C 23.671875 -22.566406 23.316406 -23.859375 22.609375 -24.734375 C 21.898438 -25.617188 20.894531 -26.0625 19.59375 -26.0625 Z M 19.59375 -26.0625 "/></g></g></g><g fill="#ff5757" fill-opacity="1"><g transform="translate(158.367109, 207.151597)"><g><path d="M 10.96875 -8.453125 C 10.96875 -7.785156 11.132812 -7.296875 11.46875 -6.984375 C 11.8125 -6.671875 12.21875 -6.515625 12.6875 -6.515625 C 13.570312 -6.515625 14.375 -7.101562 15.09375 -8.28125 C 15.820312 -9.457031 16.40625 -11.066406 16.84375 -13.109375 L 19.453125 -25.515625 L 28.171875 -25.515625 L 22.796875 0 L 15.8125 0 L 16.109375 -3.5625 L 15.921875 -3.5625 C 15.109375 -2.164062 14.140625 -1.144531 13.015625 -0.5 C 11.898438 0.132812 10.523438 0.453125 8.890625 0.453125 C 6.773438 0.453125 5.125 -0.1875 3.9375 -1.46875 C 2.75 -2.757812 2.15625 -4.53125 2.15625 -6.78125 C 2.15625 -8.375 2.34375 -10.09375 2.71875 -11.9375 L 5.578125 -25.515625 L 14.296875 -25.515625 L 11.390625 -11.625 C 11.109375 -10.394531 10.96875 -9.335938 10.96875 -8.453125 Z M 10.96875 -8.453125 "/></g></g></g><g fill="#ff5757" fill-opacity="1"><g transform="translate(187.057808, 207.151597)"><g><path d="M 9.234375 0 L 0.515625 0 L 5.90625 -25.515625 L 14.65625 -25.515625 Z M 6.953125 -31.125 C 6.953125 -32.664062 7.398438 -33.832031 8.296875 -34.625 C 9.191406 -35.425781 10.441406 -35.828125 12.046875 -35.828125 C 13.410156 -35.828125 14.460938 -35.550781 15.203125 -35 C 15.953125 -34.457031 16.328125 -33.675781 16.328125 -32.65625 C 16.328125 -31.15625 15.890625 -29.992188 15.015625 -29.171875 C 14.148438 -28.359375 12.898438 -27.953125 11.265625 -27.953125 C 8.390625 -27.953125 6.953125 -29.007812 6.953125 -31.125 Z M 6.953125 -31.125 "/></g></g></g><g fill="#ff5757" fill-opacity="1"><g transform="translate(202.056243, 207.151597)"><g><path d="M 11.390625 0.453125 C 8.410156 0.453125 6.082031 -0.453125 4.40625 -2.265625 C 2.726562 -4.078125 1.890625 -6.640625 1.890625 -9.953125 C 1.890625 -12.972656 2.460938 -15.707031 3.609375 -18.15625 C 4.765625 -20.613281 6.378906 -22.53125 8.453125 -23.90625 C 10.535156 -25.28125 12.898438 -25.96875 15.546875 -25.96875 C 18.472656 -25.96875 21.226562 -25.367188 23.8125 -24.171875 L 21.03125 -17.703125 C 19.039062 -18.597656 17.351562 -19.046875 15.96875 -19.046875 C 15.039062 -19.046875 14.175781 -18.6875 13.375 -17.96875 C 12.582031 -17.25 11.929688 -16.171875 11.421875 -14.734375 C 10.910156 -13.304688 10.65625 -11.898438 10.65625 -10.515625 C 10.65625 -9.148438 10.878906 -8.144531 11.328125 -7.5 C 11.773438 -6.863281 12.488281 -6.546875 13.46875 -6.546875 C 14.550781 -6.546875 15.597656 -6.71875 16.609375 -7.0625 C 17.617188 -7.414062 18.695312 -7.890625 19.84375 -8.484375 L 19.84375 -1.578125 C 18.644531 -0.910156 17.378906 -0.40625 16.046875 -0.0625 C 14.710938 0.28125 13.160156 0.453125 11.390625 0.453125 Z M 11.390625 0.453125 "/></g></g></g><g fill="#ff5757" fill-opacity="1"><g transform="translate(225.29706, 207.151597)"><g><path d="M 7.84375 -35.046875 L 16.546875 -35.046875 L 13.421875 -20.109375 C 13.171875 -18.953125 12.660156 -17.28125 11.890625 -15.09375 L 12.09375 -15.09375 C 13.351562 -17 14.503906 -18.5 15.546875 -19.59375 L 20.984375 -25.515625 L 30.9375 -25.515625 L 19.890625 -13.984375 L 26.0625 0 L 16.1875 0 L 13.0625 -8.8125 L 10.78125 -7.609375 L 9.234375 0 L 0.515625 0 Z M 7.84375 -35.046875 "/></g></g></g><g fill="#ff5757" fill-opacity="1"><g transform="translate(253.762558, 207.151597)"><g><path d="M 28.171875 -23.0625 C 28.171875 -19.28125 26.882812 -16.3125 24.3125 -14.15625 C 21.738281 -12 18.210938 -10.921875 13.734375 -10.921875 L 11.796875 -10.921875 L 9.546875 0 L 0.75 0 L 7.703125 -32.921875 L 16.109375 -32.921875 C 19.992188 -32.921875 22.972656 -32.066406 25.046875 -30.359375 C 27.128906 -28.660156 28.171875 -26.226562 28.171875 -23.0625 Z M 13.375 -18.125 L 14.796875 -18.125 C 16.160156 -18.125 17.265625 -18.5625 18.109375 -19.4375 C 18.953125 -20.320312 19.375 -21.441406 19.375 -22.796875 C 19.375 -23.679688 19.101562 -24.394531 18.5625 -24.9375 C 18.019531 -25.476562 17.273438 -25.75 16.328125 -25.75 L 15 -25.75 Z M 13.375 -18.125 "/></g></g></g><g fill="#ff5757" fill-opacity="1"><g transform="translate(282.498297, 207.151597)"><g><path d="M 9.234375 0 L 0.515625 0 L 5.90625 -25.515625 L 14.65625 -25.515625 Z M 6.953125 -31.125 C 6.953125 -32.664062 7.398438 -33.832031 8.296875 -34.625 C 9.191406 -35.425781 10.441406 -35.828125 12.046875 -35.828125 C 13.410156 -35.828125 14.460938 -35.550781 15.203125 -35 C 15.953125 -34.457031 16.328125 -33.675781 16.328125 -32.65625 C 16.328125 -31.15625 15.890625 -29.992188 15.015625 -29.171875 C 14.148438 -28.359375 12.898438 -27.953125 11.265625 -27.953125 C 8.390625 -27.953125 6.953125 -29.007812 6.953125 -31.125 Z M 6.953125 -31.125 "/></g></g></g><g fill="#ff5757" fill-opacity="1"><g transform="translate(297.496732, 207.151597)"><g><path d="M 11.390625 0.453125 C 8.410156 0.453125 6.082031 -0.453125 4.40625 -2.265625 C 2.726562 -4.078125 1.890625 -6.640625 1.890625 -9.953125 C 1.890625 -12.972656 2.460938 -15.707031 3.609375 -18.15625 C 4.765625 -20.613281 6.378906 -22.53125 8.453125 -23.90625 C 10.535156 -25.28125 12.898438 -25.96875 15.546875 -25.96875 C 18.472656 -25.96875 21.226562 -25.367188 23.8125 -24.171875 L 21.03125 -17.703125 C 19.039062 -18.597656 17.351562 -19.046875 15.96875 -19.046875 C 15.039062 -19.046875 14.175781 -18.6875 13.375 -17.96875 C 12.582031 -17.25 11.929688 -16.171875 11.421875 -14.734375 C 10.910156 -13.304688 10.65625 -11.898438 10.65625 -10.515625 C 10.65625 -9.148438 10.878906 -8.144531 11.328125 -7.5 C 11.773438 -6.863281 12.488281 -6.546875 13.46875 -6.546875 C 14.550781 -6.546875 15.597656 -6.71875 16.609375 -7.0625 C 17.617188 -7.414062 18.695312 -7.890625 19.84375 -8.484375 L 19.84375 -1.578125 C 18.644531 -0.910156 17.378906 -0.40625 16.046875 -0.0625 C 14.710938 0.28125 13.160156 0.453125 11.390625 0.453125 Z M 11.390625 0.453125 "/></g></g></g><g fill="#ff5757" fill-opacity="1"><g transform="translate(320.73755, 207.151597)"><g><path d="M 7.84375 -35.046875 L 16.546875 -35.046875 L 13.421875 -20.109375 C 13.171875 -18.953125 12.660156 -17.28125 11.890625 -15.09375 L 12.09375 -15.09375 C 13.351562 -17 14.503906 -18.5 15.546875 -19.59375 L 20.984375 -25.515625 L 30.9375 -25.515625 L 19.890625 -13.984375 L 26.0625 0 L 16.1875 0 L 13.0625 -8.8125 L 10.78125 -7.609375 L 9.234375 0 L 0.515625 0 Z M 7.84375 -35.046875 "/></g></g></g><g fill="#ff914d" fill-opacity="1"><g transform="translate(258.315323, 236.882906)"><g><path d="M 5.125 0.203125 C 3.78125 0.203125 2.726562 -0.203125 1.96875 -1.015625 C 1.21875 -1.828125 0.84375 -2.976562 0.84375 -4.46875 C 0.84375 -5.832031 1.101562 -7.066406 1.625 -8.171875 C 2.144531 -9.273438 2.867188 -10.132812 3.796875 -10.75 C 4.734375 -11.363281 5.796875 -11.671875 6.984375 -11.671875 C 8.296875 -11.671875 9.535156 -11.398438 10.703125 -10.859375 L 9.453125 -7.953125 C 8.554688 -8.359375 7.796875 -8.5625 7.171875 -8.5625 C 6.753906 -8.5625 6.367188 -8.398438 6.015625 -8.078125 C 5.660156 -7.753906 5.363281 -7.269531 5.125 -6.625 C 4.894531 -5.976562 4.78125 -5.347656 4.78125 -4.734375 C 4.78125 -4.117188 4.878906 -3.664062 5.078125 -3.375 C 5.285156 -3.09375 5.609375 -2.953125 6.046875 -2.953125 C 6.535156 -2.953125 7.007812 -3.023438 7.46875 -3.171875 C 7.925781 -3.328125 8.410156 -3.539062 8.921875 -3.8125 L 8.921875 -0.703125 C 8.378906 -0.410156 7.804688 -0.1875 7.203125 -0.03125 C 6.609375 0.125 5.914062 0.203125 5.125 0.203125 Z M 5.125 0.203125 "/></g></g></g><g fill="#ff914d" fill-opacity="1"><g transform="translate(274.859534, 236.882906)"><g><path d="M 5.71875 -2.953125 C 6.050781 -2.953125 6.367188 -3.144531 6.671875 -3.53125 C 6.984375 -3.925781 7.226562 -4.453125 7.40625 -5.109375 C 7.59375 -5.773438 7.6875 -6.425781 7.6875 -7.0625 C 7.6875 -7.5 7.617188 -7.851562 7.484375 -8.125 C 7.359375 -8.394531 7.148438 -8.53125 6.859375 -8.53125 C 6.347656 -8.53125 5.882812 -8.101562 5.46875 -7.25 C 5.050781 -6.394531 4.84375 -5.441406 4.84375 -4.390625 C 4.84375 -3.429688 5.132812 -2.953125 5.71875 -2.953125 Z M 9.9375 0 L 6.796875 0 L 6.90625 -1.25 L 6.828125 -1.25 C 6.441406 -0.71875 6.03125 -0.34375 5.59375 -0.125 C 5.15625 0.09375 4.660156 0.203125 4.109375 0.203125 C 3.046875 0.203125 2.234375 -0.171875 1.671875 -0.921875 C 1.117188 -1.679688 0.84375 -2.765625 0.84375 -4.171875 C 0.84375 -5.378906 1.085938 -6.609375 1.578125 -7.859375 C 2.078125 -9.117188 2.703125 -10.066406 3.453125 -10.703125 C 4.210938 -11.347656 5.046875 -11.671875 5.953125 -11.671875 C 6.515625 -11.671875 7.007812 -11.539062 7.4375 -11.28125 C 7.875 -11.03125 8.265625 -10.617188 8.609375 -10.046875 L 8.6875 -10.046875 L 9.21875 -11.46875 L 12.359375 -11.46875 Z M 9.9375 0 "/></g></g></g><g fill="#ff914d" fill-opacity="1"><g transform="translate(293.539258, 236.882906)"><g><path d="M 9.125 -11.671875 C 9.5 -11.671875 9.769531 -11.644531 9.9375 -11.59375 L 9.078125 -7.71875 C 8.710938 -7.863281 8.300781 -7.9375 7.84375 -7.9375 C 7.144531 -7.9375 6.585938 -7.695312 6.171875 -7.21875 C 5.753906 -6.75 5.4375 -6.023438 5.21875 -5.046875 L 4.15625 0 L 0.234375 0 L 2.65625 -11.46875 L 5.78125 -11.46875 L 5.59375 -9.5625 L 5.671875 -9.5625 C 6.117188 -10.3125 6.597656 -10.847656 7.109375 -11.171875 C 7.617188 -11.503906 8.289062 -11.671875 9.125 -11.671875 Z M 9.125 -11.671875 "/></g></g></g><g fill="#ff914d" fill-opacity="1"><g transform="translate(308.696914, 236.882906)"><g><path d="M 9.015625 -3.984375 C 9.015625 -2.640625 8.578125 -1.601562 7.703125 -0.875 C 6.828125 -0.15625 5.566406 0.203125 3.921875 0.203125 C 2.421875 0.203125 1.21875 -0.0078125 0.3125 -0.4375 L 0.3125 -3.578125 C 0.9375 -3.242188 1.515625 -3.007812 2.046875 -2.875 C 2.578125 -2.738281 3.117188 -2.671875 3.671875 -2.671875 C 4.128906 -2.671875 4.472656 -2.734375 4.703125 -2.859375 C 4.929688 -2.984375 5.046875 -3.15625 5.046875 -3.375 C 5.046875 -3.613281 4.957031 -3.816406 4.78125 -3.984375 C 4.601562 -4.160156 4.164062 -4.445312 3.46875 -4.84375 C 2.75 -5.238281 2.222656 -5.6875 1.890625 -6.1875 C 1.566406 -6.695312 1.40625 -7.316406 1.40625 -8.046875 C 1.40625 -9.210938 1.8125 -10.109375 2.625 -10.734375 C 3.445312 -11.359375 4.609375 -11.671875 6.109375 -11.671875 C 6.867188 -11.671875 7.554688 -11.582031 8.171875 -11.40625 C 8.796875 -11.226562 9.40625 -10.957031 10 -10.59375 L 8.765625 -8.046875 C 8.316406 -8.335938 7.851562 -8.566406 7.375 -8.734375 C 6.90625 -8.910156 6.5 -9 6.15625 -9 C 5.644531 -9 5.390625 -8.769531 5.390625 -8.3125 C 5.390625 -8.113281 5.492188 -7.941406 5.703125 -7.796875 C 5.921875 -7.648438 6.269531 -7.457031 6.75 -7.21875 C 8.257812 -6.457031 9.015625 -5.378906 9.015625 -3.984375 Z M 9.015625 -3.984375 "/></g></g></g></svg>